<svg width="64" height="64" xmlns="http://www.w3.org/2000/svg" xmlns:xlink="http://www.w3.org/1999/xlink">
  <defs/>
  <g>
    <circle cx="32" cy="32" r="21" fill="#FFFFFF" stroke="none"/>
    <path stroke="none" fill="#000000" d="M25 22 L25 42 35 42 Q37.45 42 39.2 40.25 L39.25 40.2 Q41 38.45 41 36 41 33.7 39.5 32 41 30.3 41 28 41 25.55 39.25 23.8 L39.2 23.75 Q37.45 22 35 22 L25 22 M29 26 L35 26 Q35.8 26 36.35 26.55 L36.45 26.65 Q37 27.2 37 28 37 28.85 36.45 29.4 L36.4 29.4 Q35.8 30 35 30 L29 30 29 26 M29 34 L35 34 Q35.8 34 36.4 34.6 L36.45 34.6 Q37 35.15 37 36 37 36.8 36.45 37.35 L36.35 37.45 Q35.8 38 35 38 L29 38 29 34"/>
  </g>
</svg>
